Coordinates
version=1
nRows=29
nColumns=24
inDegrees=yes

Units are S.I. units (second, meters, Newtons, ...)
Angles are in degrees.

endheader
time	pelvis_tilt	pelvis_list	pelvis_rotation	pelvis_tx	pelvis_ty	pelvis_tz	hip_flexion_r	hip_adduction_r	hip_rotation_r	knee_angle_r	ankle_angle_r	subtalar_angle_r	mtp_angle_r	hip_flexion_l	hip_adduction_l	hip_rotation_l	knee_angle_l	ankle_angle_l	subtalar_angle_l	mtp_angle_l	lumbar_extension	lumbar_bending	lumbar_rotation
      3.56000000	     19.64316679	     -7.30680338	     10.31696231	      0.42084704	      0.97375353	      0.05767542	    -16.97051834	     12.97429519	    -12.94282626	     -3.31161870	      6.70313887	      8.49807023	      6.12302737	     -5.76190766	    -13.92027327	     -3.34499404	    -63.19061162	      1.93709816	     -5.47221369	     28.15846446	    -26.73145928	     10.37858428	     -3.02967291
      3.56500000	     19.52779625	     -7.14440034	     10.34453373	      0.42622904	      0.97397577	      0.05757310	    -17.36650346	     12.88218108	    -12.70662129	     -3.05770910	      6.93592880	      8.27769483	      6.06586249	     -4.80503094	    -13.66890607	     -3.26813064	    -63.09449699	      2.93343770	     -5.47236850	     27.90401033	    -26.70782643	     10.19501883	     -3.05714331
      3.57000000	     19.42419548	     -7.00875812	     10.35508660	      0.43168934	      0.97416474	      0.05749299	    -17.79202203	     12.81593651	    -12.44269695	     -2.77411590	      7.12657689	      8.04082834	      5.98719310	     -3.89553948	    -13.45658188	     -3.26466160	    -62.90642736	      3.93413856	     -5.40281745	     27.63788044	    -26.68629659	     10.03178544	     -3.07413146
      3.57500000	     19.35956129	     -6.82698951	     10.35945870	      0.43707780	      0.97440755	      0.05733893	    -18.24956544	     12.69261445	    -12.21670677	     -2.52596675	      7.34443213	      7.89484024	      5.95536289	     -3.07032889	    -13.16211869	     -3.23584912	    -62.59710137	      4.86233571	     -5.35006159	     27.56613301	    -26.72129678	      9.83069297	     -3.06096162
      3.58000000	     19.28698996	     -6.72196922	     10.32776973	      0.44258426	      0.97456865	      0.05731314	    -18.73294698	     12.64863956	    -11.85457022	     -2.19790592	      7.47104130	      7.61004726	      5.83581396	     -2.26371666	    -12.98337976	     -3.31956168	    -62.22195081	      5.84833433	     -5.09997659	     27.28984877	    -26.72988100	      9.68142297	     -3.02059884
      3.58500000	     19.22363953	     -6.52847370	     10.31440063	      0.44803672	      0.97475814	      0.05714893	    -19.20389535	     12.50260825	    -11.65602324	     -1.94285156	      7.70188815	      7.50920928	      5.82552765	     -1.51394656	    -12.66355421	     -3.34275483	    -61.71110323	      6.69028628	     -4.99706446	     27.30528980	    -26.76195676	      9.45848451	     -3.02294494
      3.59000000	     19.22255730	     -6.37981973	     10.26645270	      0.45349291	      0.97496088	      0.05709761	    -19.78571615	     12.40955020	    -11.25703250	     -1.59132603	      7.86201928	      7.28621870	      5.75470055	     -0.86111768	    -12.42749963	     -3.44444734	    -61.12833591	      7.55541671	     -4.58217518	     27.23022156	    -26.86277505	      9.26820541	     -2.95022591
      3.59500000	     19.19818697	     -6.22221861	     10.20130863	      0.45897022	      0.97512423	      0.05704453	    -20.33489678	     12.29285725	    -10.89634371	     -1.26234311	      8.01563530	      7.07784455	      5.68553959	     -0.22438429	    -12.16576587	     -3.56941120	    -60.44084122	      8.36663093	     -4.25646120	     27.14900905	    -26.93698377	      9.05791314	     -2.87939889
      3.60000000	     19.20321169	     -6.08211132	     10.11085496	      0.46449458	      0.97527822	      0.05705951	    -20.93081178	     12.19219024	    -10.50577351	     -0.90523757	      8.12632623	      6.85118943	      5.59088996	      0.33907925	    -11.94511040	     -3.77051300	    -59.65982369	      9.15110930	     -3.89043004	     27.02107777	    -27.03974706	      8.85236422	     -2.79686426
      3.60500000	     19.20596109	     -5.91623679	     10.02389896	      0.46995007	      0.97540987	      0.05700729	    -21.51418241	     12.05408241	    -10.12742871	     -0.57178637	      8.27652265	      6.66670074	      5.51942137	      0.87604386	    -11.67056721	     -3.93280965	    -58.78437100	      9.84470982	     -3.50694275	     26.93441588	    -27.14821511	      8.62726572	     -2.69103974
      3.61000000	     19.19851255	     -5.74374445	      9.91679551	      0.47547132	      0.97550079	      0.05700772	    -22.08504290	     11.90362954	     -9.80831900	     -0.24861546	      8.41237394	      6.48176273	      5.46336438	      1.37733641	    -11.40131020	     -4.16077874	    -57.80876952	     10.48495000	     -3.13615659	     26.88980440	    -27.24035456	      8.37855624	     -2.59586759
      3.61500000	     19.26799588	     -5.59438824	      9.78476234	      0.48096142	      0.97563985	      0.05705549	    -22.77332724	     11.77484568	     -9.33284376	      0.14827073	      8.50897141	      6.27185670	      5.37541819	      1.75732495	    -11.17675204	     -4.43720880	    -56.74136508	     11.07035166	     -2.74720671	     26.77048762	    -27.42203301	      8.15134474	     -2.45639304
      3.62000000	     19.30831837	     -5.43053528	      9.63469928	      0.48649105	      0.97573782	      0.05712720	    -23.41570771	     11.61919096	     -8.92731304	      0.51018079	      8.59294740	      6.04913194	      5.27734683	      2.12145838	    -10.93596550	     -4.75987928	    -55.57188520	     11.59585493	     -2.40343272	     26.61416504	    -27.56857607	      7.89423276	     -2.32041107
      3.62500000	     19.35440918	     -5.25221370	      9.48602900	      0.49196347	      0.97579904	      0.05719077	    -24.05090815	     11.44350003	     -8.53982690	      0.84830944	      8.72646656	      5.87859231	      5.20820158	      2.45012850	    -10.67124428	     -5.06555960	    -54.31354064	     12.02917256	     -2.05548177	     26.50267866	    -27.72871499	      7.61994509	     -2.18893881
      3.63000000	     19.41533392	     -5.06904216	      9.31580808	      0.49747370	      0.97586213	      0.05726453	    -24.70440226	     11.25351774	     -8.16387936	      1.18469667	      8.84257712	      5.71025363	      5.14234789	      2.71066084	    -10.40994012	     -5.43085099	    -52.95110533	     12.39754950	     -1.75583379	     26.39452868	    -27.90238984	      7.33516283	     -2.04282220
      3.63500000	     19.49351107	     -4.87333356	      9.12879574	      0.50300787	      0.97592514	      0.05735839	    -25.37593153	     11.04444636	     -7.80931388	      1.51698324	      8.94975954	      5.55392263	      5.07726940	      2.90112241	    -10.14338544	     -5.84632856	    -51.48371823	     12.69943876	     -1.49634213	     26.28181368	    -28.09280674	      7.02912767	     -1.89546828
      3.64000000	     19.57834761	     -4.66441994	      8.92782015	      0.50855564	      0.97597694	      0.05746187	    -26.04454233	     10.81400228	     -7.48778782	      1.82481261	      9.07830452	      5.42816315	      5.02300420	      3.03540747	     -9.86274208	     -6.29254342	    -49.91386236	     12.92126329	     -1.26539901	     26.18255072	    -28.29053599	      6.70164131	     -1.74427364
      3.64500000	     19.65842069	     -4.44088822	      8.71530233	      0.51409725	      0.97599715	      0.05757781	    -26.68860303	     10.56202247	     -7.21500600	      2.09460823	      9.25630204	      5.30969331	      4.99014311	      3.13252396	     -9.56660189	     -6.76963977	    -48.25206571	     13.03699474	     -1.05096036	     26.11137891	    -28.48420988	      6.35054312	     -1.58855486
      3.65000000	     19.81889103	     -4.19777320	      8.47907043	      0.51969872	      0.97610915	      0.05769999	    -27.43853194	     10.28619906	     -6.95541198	      2.39312511	      9.36344610	      5.26898326	      4.94277251	      3.06405740	     -9.26388774	     -7.32594216	    -46.45415701	     13.13824765	     -0.91692834	     26.04676143	    -28.76208077	      5.97739786	     -1.44147642
      3.65500000	     19.96249844	     -3.93646274	      8.23232502	      0.52531185	      0.97617824	      0.05781076	    -28.14561263	      9.98132532	     -6.75631090	      2.63961598	      9.53741222	      5.26701440	      4.91328225	      2.96610815	     -8.93058647	     -7.89840795	    -44.55602602	     13.14004117	     -0.76941551	     26.01943779	    -29.01923693	      5.57625954	     -1.29283380
      3.66000000	     20.14420977	     -3.64805058	      7.96263118	      0.53097603	      0.97628779	      0.05791518	    -28.88858241	      9.64056618	     -6.60405717	      2.86554426	      9.73464081	      5.31061372	      4.89336861	      2.75558510	     -8.56966997	     -8.53795348	    -42.53368456	     13.05397440	     -0.63229428	     26.02923420	    -29.31344321	      5.14285811	     -1.14640535
      3.66500000	     20.35501411	     -3.33628044	      7.67693498	      0.53670851	      0.97642151	      0.05800537	    -29.65824720	      9.26972278	     -6.51597596	      3.07271130	      9.93758199	      5.42800810	      4.87737445	      2.44292931	     -8.17834665	     -9.22916271	    -40.38529483	     12.90378819	     -0.49460168	     26.09525339	    -29.63117746	      4.68256930	     -1.01046538
      3.67000000	     20.59835072	     -3.00616277	      7.37789274	      0.54249835	      0.97655657	      0.05807143	    -30.45529749	      8.87415263	     -6.49006395	      3.26028766	     10.17113801	      5.60729258	      4.86782026	      2.03433485	     -7.76050472	     -9.96907552	    -38.13154044	     12.67816721	     -0.32445979	     26.22381586	    -29.97605744	      4.19883664	     -0.87940668
      3.67500000	     20.86432138	     -2.66081822	      7.06601927	      0.54836197	      0.97669692	      0.05811203	    -31.26803013	      8.45519726	     -6.52114694	      3.42320080	     10.41798183	      5.84685957	      4.86123399	      1.53869259	     -7.31363632	    -10.75383716	    -35.76727817	     12.38007483	     -0.10890783	     26.42343948	    -30.33443707	      3.69568666	     -0.75599563
      3.68000000	     21.15807169	     -2.30537597	      6.74138935	      0.55430852	      0.97682442	      0.05810848	    -32.10386908	      8.01784366	     -6.62195437	      3.56697247	     10.68179757	      6.15697923	      4.85652190	      0.95669788	     -6.84130819	    -11.59083621	    -33.30878464	     12.01710311	      0.18685218	     26.70409960	    -30.70968687	      3.18183160	     -0.63659806
      3.68500000	     21.46765239	     -1.94816109	      6.41241169	      0.56033593	      0.97691684	      0.05805952	    -32.94821762	      7.57284646	     -6.77511642	      3.69068114	     10.96351897	      6.51600180	      4.85117003	      0.31126517	     -6.34734652	    -12.46007968	    -30.77209684	     11.58902899	      0.58372155	     27.06397226	    -31.08823929	      2.66589657	     -0.52417349
      3.69000000	     21.78941425	     -1.53678141	      6.14505393	      0.56648093	      0.97697201	      0.05779127	    -33.76605108	      7.10377581	     -7.29918497	      3.71276085	     11.38648242	      7.30186624	      4.74777931	     -0.39256552	     -5.75145056	    -13.25537337	    -28.12999102	     10.93633601	      0.85113779	     28.42173184	    -31.46331169	      2.13570913	     -0.52668124
      3.69500000	     22.10009413	     -1.26927737	      5.76677862	      0.57261983	      0.97691564	      0.05774716	    -34.61290882	      6.70295398	     -7.26074634	      3.85755802	     11.58896474	      7.40921123	      4.72242221	     -1.07846398	     -5.32464462	    -14.26156336	    -25.55020058	     10.45947679	      1.64281724	     28.72225186	    -31.81240692	      1.68609456	     -0.32781995
      3.70000000	     22.43031769	     -0.93303237	      5.47967533	      0.57888160	      0.97683079	      0.05741088	    -35.43693489	      6.27979151	     -7.67860100	      3.88623735	     11.96007993	      8.04637250	      4.43611024	     -1.82138018	     -4.77171786	    -15.14464024	    -22.87028161	      9.61295025	      2.19631163	     30.85841550	    -32.16565302	      1.22617132	     -0.27893139
